PathFileType	4	(X/Y/Z)	 s11c0101.trc
DataRate	CameraRate	NumFrames	NumMarkers	Units	OrigDataRate	OrigDataStartFrame	OrigNumFrames
200	200	4	48	mm	200	751	2000
Frame#	Time	racr			lacr			c7			jug			rlel			rdr			llel			ldr			s2			lic			ric			lasi			rasi			rpsi			lpsi			rgt			lgt			rth1			rth2			rth3			rth4			rlfc			rmfc			rsh1			rsh2			rsh3			rsh4			rlmal			rcal			rtoe			rmt5			lth1			lth2			lth4			lth3			llfc			lmfc			llmal			lcal			lmt5			lsh1			lsh2			lsh3			lsh4			ltoe			SBIKE			LBIKE			RBIKE			
		X1	Y1	Z1	X2	Y2	Z2	X3	Y3	Z3	X4	Y4	Z4	X5	Y5	Z5	X6	Y6	Z6	X7	Y7	Z7	X8	Y8	Z8	X9	Y9	Z9	X10	Y10	Z10	X11	Y11	Z11	X12	Y12	Z12	X13	Y13	Z13	X14	Y14	Z14	X15	Y15	Z15	X16	Y16	Z16	X17	Y17	Z17	X18	Y18	Z18	X19	Y19	Z19	X20	Y20	Z20	X21	Y21	Z21	X22	Y22	Z22	X23	Y23	Z23	X24	Y24	Z24	X25	Y25	Z25	X26	Y26	Z26	X27	Y27	Z27	X28	Y28	Z28	X29	Y29	Z29	X30	Y30	Z30	X31	Y31	Z31	X32	Y32	Z32	X33	Y33	Z33	X34	Y34	Z34	X35	Y35	Z35	X36	Y36	Z36	X37	Y37	Z37	X38	Y38	Z38	X39	Y39	Z39	X40	Y40	Z40	X41	Y41	Z41	X42	Y42	Z42	X43	Y43	Z43	X44	Y44	Z44	X45	Y45	Z45	X46	Y46	Z46	X47	Y47	Z47	X48	Y48	Z48	
751	3.7550	557.459995	1331.199815	-75.552627	556.338970	1337.523436	-391.913892	517.242468	1419.983791	-232.140005	500.159851	1235.833255	-253.400845	555.946481	1079.038908	56.574174	777.952057	933.005639	-31.100164	517.430838	1070.316185	-556.487525	788.377016	935.976257	-450.687617	-78.940534	1242.301638	-229.570800	138.313677	1266.045425	-440.085382	145.364541	1208.455009	-36.480785	156.187311	1197.884143	-393.758892	165.998088	1147.318612	-71.070332	-22.352537	1306.531841	-167.885799	-34.344783	1312.541636	-265.548364	53.664568	1062.452561	-29.376191	56.900829	1161.616783	-459.692788	115.221368	935.963346	-21.798580	175.012098	869.906061	-32.589963	192.631188	787.545166	-56.546515	207.893897	887.082667	-36.704775	244.008989	698.561067	-78.622871	248.580418	683.508194	-205.637916	201.977878	548.029188	-64.309224	197.088520	461.816947	-83.141319	151.668163	387.318268	-84.216965	220.104973	458.095790	-115.275868	104.057529	256.237766	-96.027942	39.799929	247.204379	-144.766803	316.041182	171.113135	-134.754438	242.150541	153.408971	-66.302410	195.598095	1106.041131	-468.772626	280.564006	1097.523463	-462.597253	293.938803	1129.346050	-447.239478	353.578646	1045.193905	-467.036843	474.706185	986.580116	-445.008275	488.184938	975.500026	-310.701035	225.553819	633.456810	-409.310936	158.051820	612.202805	-374.538146	329.527012	493.264221	-439.177561	405.548903	887.006329	-456.495622	380.269263	805.298048	-441.815039	316.290932	744.620777	-433.632130	408.529301	791.246596	-419.080210	425.255864	480.693833	-369.765270	-204.707338	961.862882	-261.692016	1.520591	82.792156	-461.093776	-15.171342	81.318848	-62.575022	
752	3.7600	557.929094	1330.306163	-76.847619	555.464387	1336.840956	-393.737506	517.537991	1419.271362	-232.921184	499.398176	1235.278337	-254.666710	556.349949	1079.077415	56.709602	777.982526	932.946843	-30.868912	515.731104	1068.763438	-556.125421	787.689248	936.020891	-450.667878	-79.059682	1243.713510	-228.799507	137.442779	1266.796133	-440.153941	145.684859	1209.636328	-36.331682	155.454658	1198.550235	-394.380871	166.033824	1148.121253	-71.509684	-22.047685	1307.816750	-167.511620	-34.501074	1313.844671	-265.113291	54.010819	1063.595169	-28.939468	55.728305	1161.772205	-458.982130	116.983314	937.273514	-21.790984	177.778626	872.081356	-32.499643	196.634762	789.886401	-56.212529	210.360209	889.651653	-36.346047	249.070003	701.810791	-77.689933	253.819975	686.423950	-204.949405	203.589121	551.093621	-63.974561	196.667998	465.156066	-83.048582	149.470660	391.576259	-84.363115	219.620465	460.963726	-115.170443	98.718490	262.038408	-96.398565	34.238956	254.832540	-145.199403	308.133039	170.846725	-135.025837	233.662681	155.328874	-66.632677	194.315425	1105.474427	-468.274941	279.309433	1096.778642	-462.270081	292.786250	1128.705368	-447.263191	352.232712	1044.178196	-466.353876	473.361151	984.954579	-444.191493	486.416861	974.234657	-310.234303	229.232159	627.687889	-409.114415	162.190952	604.264833	-374.595638	337.580218	491.391203	-439.418238	405.766430	884.076445	-455.897902	381.617943	801.947560	-441.401981	318.525632	740.327804	-433.409244	410.034012	788.337628	-418.477404	433.495761	482.360516	-369.583991	-204.716856	961.879499	-261.619725	1.523280	82.781550	-461.079111	-15.167930	81.342961	-62.572976	
753	3.7650	558.271757	1329.264505	-78.143874	554.600276	1335.888318	-395.537566	517.815781	1418.497568	-233.748708	498.446173	1234.666541	-255.803672	556.568956	1079.008857	57.004614	777.959290	932.896350	-30.580391	513.967292	1066.978033	-555.773568	786.992473	936.027979	-450.605131	-78.994865	1244.883479	-228.191640	136.324061	1267.380608	-440.289724	144.667941	1210.438862	-36.935357	154.484159	1198.797252	-394.925561	165.704582	1148.955780	-70.461889	-21.842369	1309.157444	-167.208280	-34.759134	1315.081279	-264.599678	54.530063	1064.696279	-28.657501	54.385052	1161.565316	-458.196538	119.225389	938.525674	-22.011287	181.039201	874.474931	-32.400725	201.269131	792.484679	-55.711939	213.346412	892.404459	-36.169913	254.886060	704.691358	-77.091071	259.334269	689.495135	-204.192290	205.741561	554.400257	-63.597361	196.717009	468.744500	-82.934477	147.660149	396.412825	-84.450370	219.625099	463.979124	-115.011875	93.764415	268.473034	-96.692461	29.260364	263.158299	-145.634544	300.417810	170.865342	-135.335013	225.518428	157.642594	-66.967232	192.817074	1104.594540	-467.833014	277.809609	1095.511977	-461.960527	291.475057	1127.462053	-447.256914	350.499456	1042.583807	-465.875658	471.812046	982.274089	-443.400346	484.463193	972.011403	-309.710869	232.616050	621.112927	-408.896444	165.367956	595.065945	-374.994980	345.342631	488.894650	-439.667662	405.652016	880.185725	-455.441120	382.653754	797.558830	-441.062078	320.425394	735.200240	-433.179067	411.092007	784.588318	-418.197368	441.450625	483.483086	-369.320883	-204.712170	961.903972	-261.508301	1.514203	82.827654	-461.132378	-15.163727	81.362802	-62.588628	
754	3.7700	558.554537	1327.883263	-79.248478	553.754442	1334.687214	-397.123935	518.114405	1417.417163	-234.429658	497.460915	1233.766771	-256.824123	556.774244	1078.820527	57.517913	777.852210	932.865077	-30.326347	512.298147	1065.224244	-555.371114	786.310763	936.020729	-450.511416	-79.102512	1246.057935	-227.526547	135.122031	1268.075986	-440.474159	146.100187	1211.768213	-35.555127	153.322642	1198.824418	-395.437140	165.588437	1149.254986	-70.288587	-21.667866	1310.406514	-167.012378	-34.957356	1316.226842	-264.049662	55.170007	1065.667398	-28.504002	52.841843	1161.175601	-457.305345	121.898654	939.923398	-22.189211	184.779214	876.807524	-32.344022	206.615458	794.948465	-54.969672	216.727880	895.199930	-36.268942	261.211569	707.543419	-76.266395	265.250450	692.577562	-203.381711	208.406172	557.987854	-63.185583	197.229810	472.554592	-82.780074	146.542013	401.576937	-84.511993	220.049699	467.481407	-114.898702	89.324181	275.410478	-96.886827	24.696055	272.144436	-146.000790	292.790967	171.075047	-135.509090	217.435915	160.367335	-67.362962	191.184025	1103.301253	-467.436294	276.129477	1093.694991	-461.497827	290.029612	1125.751912	-447.372179	348.507831	1040.415580	-465.570538	470.151692	978.573994	-442.561025	482.369121	968.900686	-309.226217	235.821843	613.618730	-408.641762	169.170148	585.301326	-375.045325	352.818478	485.556494	-439.926558	405.486072	874.874784	-454.760978	383.497669	792.242884	-440.705749	322.124568	728.970990	-432.941542	411.971044	779.739913	-417.764283	449.134903	484.195903	-369.421594	-204.705762	961.911933	-261.390623	1.508417	82.804284	-461.096823	-15.179400	81.377829	-62.598575	
